<?xml version="1.0" encoding="UTF-8" standalone="no"?>
<!DOCTYPE svg PUBLIC "-//W3C//DTD SVG 1.1//EN"
 "http://www.w3.org/Graphics/SVG/1.1/DTD/svg11.dtd">
<!-- Generated by graphviz version 7.1.0 (0)
 -->
<!-- Title: PcpPrimIndex Pages: 1 -->
<svg width="1037pt" height="272pt"
 viewBox="0.00 0.00 1036.50 272.00" xmlns="http://www.w3.org/2000/svg" xmlns:xlink="http://www.w3.org/1999/xlink">
<g id="graph0" class="graph" transform="scale(1 1) rotate(0) translate(4 268)">
<title>PcpPrimIndex</title>
<polygon fill="white" stroke="none" points="-4,4 -4,-268 1032.5,-268 1032.5,4 -4,4"/>
<!-- 139715345120448 -->
<g id="node1" class="node">
<title>139715345120448</title>
<polygon fill="none" stroke="black" points="941.5,-264 286.5,-264 286.5,-210 941.5,-210 941.5,-264"/>
<text text-anchor="middle" x="614" y="-248.8" font-family="Times,serif" font-size="14.00">@anon:0x7f115c3c3c80:LOP:rootlayer@,@anon:0x7f115c3c4e00:LOP:rootlayer&#45;session.usda@&lt;/asset_sphere&gt; (0)</text>
<text text-anchor="middle" x="614" y="-217.8" font-family="Times,serif" font-size="14.00">depth: 0</text>
</g>
<!-- 139715345120552 -->
<g id="node2" class="node">
<title>139715345120552</title>
<polygon fill="none" stroke="black" points="730,-159 0,-159 0,-105 730,-105 730,-159"/>
<text text-anchor="middle" x="365" y="-143.8" font-family="Times,serif" font-size="14.00">@anon:0x7f115c3c3c80:LOP:rootlayer@,@anon:0x7f115c3c4e00:LOP:rootlayer&#45;session.usda@&lt;/__CLASS__/assets/sphere&gt; (1)</text>
<text text-anchor="middle" x="365" y="-112.8" font-family="Times,serif" font-size="14.00">depth: 1</text>
</g>
<!-- 139715345120448&#45;&gt;139715345120552 -->
<g id="edge1" class="edge">
<title>139715345120448&#45;&gt;139715345120552</title>
<path fill="none" stroke="green" stroke-dasharray="5,2" d="M550.2,-209.61C516.23,-195.56 474.28,-178.21 438.91,-163.57"/>
<polygon fill="green" stroke="green" points="440.61,-160.49 430.03,-159.9 437.94,-166.96 440.61,-160.49"/>
<text text-anchor="middle" x="523" y="-180.8" font-family="Times,serif" font-size="14.00">inherit</text>
</g>
<!-- 139715345120656 -->
<g id="node4" class="node">
<title>139715345120656</title>
<polygon fill="none" stroke="black" points="980,-159 748,-159 748,-105 980,-105 980,-159"/>
<text text-anchor="middle" x="864" y="-143.8" font-family="Times,serif" font-size="14.00">@asset_sphere.usdnc@&lt;/root_grp&gt; (2)</text>
<text text-anchor="middle" x="864" y="-112.8" font-family="Times,serif" font-size="14.00">depth: 1</text>
</g>
<!-- 139715345120448&#45;&gt;139715345120656 -->
<g id="edge3" class="edge">
<title>139715345120448&#45;&gt;139715345120656</title>
<path fill="none" stroke="red" d="M678.06,-209.61C712.16,-195.56 754.28,-178.21 789.8,-163.57"/>
<polygon fill="red" stroke="red" points="790.8,-166.94 798.71,-159.9 788.13,-160.47 790.8,-166.94"/>
<text text-anchor="middle" x="778.5" y="-180.8" font-family="Times,serif" font-size="14.00">reference</text>
</g>
<!-- 139715345120760 -->
<g id="node3" class="node">
<title>139715345120760</title>
<polygon fill="none" stroke="black" points="1028.5,-54 699.5,-54 699.5,0 1028.5,0 1028.5,-54"/>
<text text-anchor="middle" x="864" y="-38.8" font-family="Times,serif" font-size="14.00">@asset_sphere.usdnc@&lt;/__CLASS__/assets/sphere&gt; (3)</text>
<text text-anchor="middle" x="864" y="-7.8" font-family="Times,serif" font-size="14.00">depth: 1</text>
</g>
<!-- 139715345120552&#45;&gt;139715345120760 -->
<g id="edge2" class="edge">
<title>139715345120552&#45;&gt;139715345120760</title>
<path fill="none" stroke="black" stroke-dasharray="1,5" d="M493.18,-104.54C564.04,-89.91 652.17,-71.73 724.72,-56.75"/>
<polygon fill="black" stroke="black" points="725.2,-60.22 734.29,-54.77 723.79,-53.37 725.2,-60.22"/>
<text text-anchor="middle" x="661.5" y="-75.8" font-family="Times,serif" font-size="14.00">origin</text>
</g>
<!-- 139715345120656&#45;&gt;139715345120760 -->
<g id="edge4" class="edge">
<title>139715345120656&#45;&gt;139715345120760</title>
<path fill="none" stroke="green" d="M864,-104.74C864,-92.88 864,-78.64 864,-65.66"/>
<polygon fill="green" stroke="green" points="867.5,-65.72 864,-55.72 860.5,-65.72 867.5,-65.72"/>
<text text-anchor="middle" x="882" y="-75.8" font-family="Times,serif" font-size="14.00">inherit</text>
</g>
</g>
</svg>
