<?xml version="1.0" encoding="UTF-8" standalone="no"?>
<!DOCTYPE svg PUBLIC "-//W3C//DTD SVG 1.1//EN"
 "http://www.w3.org/Graphics/SVG/1.1/DTD/svg11.dtd">
<!-- Generated by graphviz version 7.1.0 (0)
 -->
<!-- Title: PcpPrimIndex Pages: 1 -->
<svg width="1781pt" height="437pt"
 viewBox="0.00 0.00 1780.50 437.00" xmlns="http://www.w3.org/2000/svg" xmlns:xlink="http://www.w3.org/1999/xlink">
<g id="graph0" class="graph" transform="scale(1 1) rotate(0) translate(4 433)">
<title>PcpPrimIndex</title>
<polygon fill="white" stroke="none" points="-4,4 -4,-433 1776.5,-433 1776.5,4 -4,4"/>
<!-- 139640954712192 -->
<g id="node1" class="node">
<title>139640954712192</title>
<polygon fill="none" stroke="black" points="994,-429 361,-429 361,-375 994,-375 994,-429"/>
<text text-anchor="middle" x="677.5" y="-413.8" font-family="Times,serif" font-size="14.00">@anon:0x7f00b1a3c280:LOP:rootlayer@,@anon:0x7f00b1a3db80:LOP:rootlayer&#45;session.usda@&lt;/set/cone&gt; (0)</text>
<text text-anchor="middle" x="677.5" y="-382.8" font-family="Times,serif" font-size="14.00">depth: 0</text>
</g>
<!-- 139640954712296 -->
<g id="node2" class="node">
<title>139640954712296</title>
<polygon fill="none" stroke="black" points="353,-324 94,-324 94,-270 353,-270 353,-324"/>
<text text-anchor="middle" x="223.5" y="-308.8" font-family="Times,serif" font-size="14.00">@assembly_cone.usdnc@&lt;/asset_cone&gt; (1)</text>
<text text-anchor="middle" x="223.5" y="-277.8" font-family="Times,serif" font-size="14.00">depth: 2</text>
</g>
<!-- 139640954712192&#45;&gt;139640954712296 -->
<g id="edge1" class="edge">
<title>139640954712192&#45;&gt;139640954712296</title>
<path fill="none" stroke="red" d="M560.88,-374.54C496.67,-359.97 416.89,-341.87 351.03,-326.93"/>
<polygon fill="red" stroke="red" points="352.17,-323.6 341.64,-324.8 350.62,-330.43 352.17,-323.6"/>
<text text-anchor="middle" x="504" y="-345.8" font-family="Times,serif" font-size="14.00">reference</text>
</g>
<!-- 139640954712712 -->
<g id="node6" class="node">
<title>139640954712712</title>
<polygon fill="none" stroke="black" points="680,-324 371,-324 371,-270 680,-270 680,-324"/>
<text text-anchor="middle" x="525.5" y="-308.8" font-family="Times,serif" font-size="14.00">@asset_cone.usdnc@&lt;/__CLASS__/assets/cone&gt; (5)</text>
<text text-anchor="middle" x="525.5" y="-277.8" font-family="Times,serif" font-size="14.00">depth: 2</text>
</g>
<!-- 139640954712192&#45;&gt;139640954712712 -->
<g id="edge6" class="edge">
<title>139640954712192&#45;&gt;139640954712712</title>
<path fill="none" stroke="sienna" stroke-dasharray="5,2" d="M638.75,-374.74C619,-361.36 594.78,-344.95 573.82,-330.74"/>
<polygon fill="sienna" stroke="sienna" points="575.94,-327.95 565.7,-325.24 572.01,-333.74 575.94,-327.95"/>
<text text-anchor="middle" x="637.5" y="-345.8" font-family="Times,serif" font-size="14.00">specialize</text>
</g>
<!-- 139640954712816 -->
<g id="node7" class="node">
<title>139640954712816</title>
<polygon fill="none" stroke="black" stroke-dasharray="1,5" points="1420.5,-324 698.5,-324 698.5,-270 1420.5,-270 1420.5,-324"/>
<text text-anchor="middle" x="1059.5" y="-308.8" font-family="Times,serif" font-size="14.00">@anon:0x7f00b1a3c280:LOP:rootlayer@,@anon:0x7f00b1a3db80:LOP:rootlayer&#45;session.usda@&lt;/__CLASS__/assets/cone&gt; (6)</text>
<text text-anchor="middle" x="1059.5" y="-277.8" font-family="Times,serif" font-size="14.00">depth: 2</text>
</g>
<!-- 139640954712192&#45;&gt;139640954712816 -->
<g id="edge8" class="edge">
<title>139640954712192&#45;&gt;139640954712816</title>
<path fill="none" stroke="sienna" stroke-dasharray="5,2" d="M775.38,-374.61C828.95,-360.16 895.46,-342.23 950.66,-327.35"/>
<polygon fill="sienna" stroke="sienna" points="951.34,-330.79 960.08,-324.81 949.52,-324.03 951.34,-330.79"/>
<text text-anchor="middle" x="917.5" y="-345.8" font-family="Times,serif" font-size="14.00">specialize</text>
</g>
<!-- 139640954712920 -->
<g id="node8" class="node">
<title>139640954712920</title>
<polygon fill="none" stroke="black" points="1772.5,-324 1438.5,-324 1438.5,-270 1772.5,-270 1772.5,-324"/>
<text text-anchor="middle" x="1605.5" y="-308.8" font-family="Times,serif" font-size="14.00">@assembly_cone.usdnc@&lt;/__CLASS__/assets/cone&gt; (7)</text>
<text text-anchor="middle" x="1605.5" y="-277.8" font-family="Times,serif" font-size="14.00">depth: 2</text>
</g>
<!-- 139640954712192&#45;&gt;139640954712920 -->
<g id="edge10" class="edge">
<title>139640954712192&#45;&gt;139640954712920</title>
<path fill="none" stroke="sienna" stroke-dasharray="5,2" d="M965.75,-374.52C1102.59,-361.2 1268.66,-343.94 1426.93,-324.3"/>
<polygon fill="sienna" stroke="sienna" points="1427.32,-327.78 1436.81,-323.07 1426.45,-320.83 1427.32,-327.78"/>
<text text-anchor="middle" x="1291.5" y="-345.8" font-family="Times,serif" font-size="14.00">specialize</text>
</g>
<!-- 139640954712400 -->
<g id="node3" class="node">
<title>139640954712400</title>
<polygon fill="none" stroke="black" points="265.5,-204 43.5,-204 43.5,-150 265.5,-150 265.5,-204"/>
<text text-anchor="middle" x="154.5" y="-188.8" font-family="Times,serif" font-size="14.00">@asset_cone.usdnc@&lt;/root_grp&gt; (2)</text>
<text text-anchor="middle" x="154.5" y="-157.8" font-family="Times,serif" font-size="14.00">depth: 1</text>
</g>
<!-- 139640954712296&#45;&gt;139640954712400 -->
<g id="edge2" class="edge">
<title>139640954712296&#45;&gt;139640954712400</title>
<path fill="none" stroke="red" d="M208.02,-269.52C198.43,-253.12 185.99,-231.85 175.52,-213.94"/>
<polygon fill="red" stroke="red" points="178.77,-212.57 170.7,-205.7 172.72,-216.1 178.77,-212.57"/>
<text text-anchor="middle" x="223" y="-240.8" font-family="Times,serif" font-size="14.00">reference</text>
</g>
<!-- 139640954712608 -->
<g id="node5" class="node">
<title>139640954712608</title>
<polygon fill="none" stroke="black" stroke-dasharray="1,5" points="617.5,-219 283.5,-219 283.5,-135 617.5,-135 617.5,-219"/>
<text text-anchor="middle" x="450.5" y="-203.8" font-family="Times,serif" font-size="14.00">@assembly_cone.usdnc@&lt;/__CLASS__/assets/cone&gt; (4)</text>
<text text-anchor="middle" x="450.5" y="-172.8" font-family="Times,serif" font-size="14.00">inert</text>
<text text-anchor="middle" x="450.5" y="-157.8" font-family="Times,serif" font-size="14.00">CANNOT contribute specs</text>
<text text-anchor="middle" x="450.5" y="-142.8" font-family="Times,serif" font-size="14.00">depth: 1</text>
</g>
<!-- 139640954712296&#45;&gt;139640954712608 -->
<g id="edge4" class="edge">
<title>139640954712296&#45;&gt;139640954712608</title>
<path fill="none" stroke="sienna" stroke-dasharray="5,2" d="M246.54,-269.58C257.45,-258.33 271.2,-245.8 285.5,-237 292.7,-232.56 300.29,-228.39 308.09,-224.49"/>
<polygon fill="sienna" stroke="sienna" points="309.6,-227.65 317.09,-220.16 306.56,-221.34 309.6,-227.65"/>
<text text-anchor="middle" x="312.5" y="-240.8" font-family="Times,serif" font-size="14.00">specialize</text>
</g>
<!-- 139640954712504 -->
<g id="node4" class="node">
<title>139640954712504</title>
<polygon fill="none" stroke="black" stroke-dasharray="1,5" points="309,-84 0,-84 0,0 309,0 309,-84"/>
<text text-anchor="middle" x="154.5" y="-68.8" font-family="Times,serif" font-size="14.00">@asset_cone.usdnc@&lt;/__CLASS__/assets/cone&gt; (3)</text>
<text text-anchor="middle" x="154.5" y="-37.8" font-family="Times,serif" font-size="14.00">inert</text>
<text text-anchor="middle" x="154.5" y="-22.8" font-family="Times,serif" font-size="14.00">CANNOT contribute specs</text>
<text text-anchor="middle" x="154.5" y="-7.8" font-family="Times,serif" font-size="14.00">depth: 1</text>
</g>
<!-- 139640954712400&#45;&gt;139640954712504 -->
<g id="edge3" class="edge">
<title>139640954712400&#45;&gt;139640954712504</title>
<path fill="none" stroke="sienna" d="M154.5,-149.72C154.5,-134.3 154.5,-114.26 154.5,-95.71"/>
<polygon fill="sienna" stroke="sienna" points="158,-95.92 154.5,-85.92 151,-95.92 158,-95.92"/>
<text text-anchor="middle" x="181.5" y="-105.8" font-family="Times,serif" font-size="14.00">specialize</text>
</g>
<!-- 139640954712608&#45;&gt;139640954712504 -->
<g id="edge5" class="edge">
<title>139640954712608&#45;&gt;139640954712504</title>
<path fill="none" stroke="black" stroke-dasharray="1,5" d="M358.47,-134.65C326.25,-120.17 289.87,-103.83 256.86,-88.99"/>
<polygon fill="black" stroke="black" points="258.67,-85.97 248.11,-85.06 255.8,-92.35 258.67,-85.97"/>
<text text-anchor="middle" x="328" y="-105.8" font-family="Times,serif" font-size="14.00">origin</text>
</g>
<!-- 139640954712712&#45;&gt;139640954712504 -->
<g id="edge7" class="edge">
<title>139640954712712&#45;&gt;139640954712504</title>
<path fill="none" stroke="black" stroke-dasharray="1,5" d="M390.64,-269.56C376.75,-261.34 371.77,-250.71 384.5,-237 421.19,-197.48 589.81,-258.52 626.5,-219 651.9,-191.64 650.24,-163.81 626.5,-135 587.86,-88.1 440.53,-64.79 320.62,-53.41"/>
<polygon fill="black" stroke="black" points="321.26,-49.95 310.98,-52.51 320.61,-56.92 321.26,-49.95"/>
<text text-anchor="middle" x="661" y="-173.3" font-family="Times,serif" font-size="14.00">origin</text>
</g>
<!-- 139640954712816&#45;&gt;139640954712608 -->
<g id="edge9" class="edge">
<title>139640954712816&#45;&gt;139640954712608</title>
<path fill="none" stroke="black" stroke-dasharray="1,5" d="M698.21,-270.57C695.3,-270.38 692.39,-270.19 689.5,-270 656.62,-267.85 416.08,-276 393.5,-252 386.71,-244.78 386.41,-236.79 389.89,-228.8"/>
<polygon fill="black" stroke="black" points="392.79,-230.76 395.04,-220.41 386.83,-227.1 392.79,-230.76"/>
<text text-anchor="middle" x="410" y="-240.8" font-family="Times,serif" font-size="14.00">origin</text>
</g>
<!-- 139640954712920&#45;&gt;139640954712608 -->
<g id="edge11" class="edge">
<title>139640954712920&#45;&gt;139640954712608</title>
<path fill="none" stroke="black" stroke-dasharray="1,5" d="M1438.33,-270.96C1435.36,-270.63 1432.42,-270.31 1429.5,-270 1076.08,-232.67 983.25,-269.75 631.5,-219 630.66,-218.88 629.82,-218.76 628.98,-218.63"/>
<polygon fill="black" stroke="black" points="629.88,-215.23 619.46,-217.15 628.81,-222.15 629.88,-215.23"/>
<text text-anchor="middle" x="1169" y="-240.8" font-family="Times,serif" font-size="14.00">origin</text>
</g>
</g>
</svg>
