<?xml version="1.0" encoding="UTF-8" standalone="no"?>
<!DOCTYPE svg PUBLIC "-//W3C//DTD SVG 1.1//EN"
 "http://www.w3.org/Graphics/SVG/1.1/DTD/svg11.dtd">
<!-- Generated by graphviz version 7.1.0 (0)
 -->
<!-- Title: PcpPrimIndex Pages: 1 -->
<svg width="1006pt" height="167pt"
 viewBox="0.00 0.00 1006.00 167.00" xmlns="http://www.w3.org/2000/svg" xmlns:xlink="http://www.w3.org/1999/xlink">
<g id="graph0" class="graph" transform="scale(1 1) rotate(0) translate(4 163)">
<title>PcpPrimIndex</title>
<polygon fill="white" stroke="none" points="-4,4 -4,-163 1002,-163 1002,4 -4,4"/>
<!-- 139715253697168 -->
<g id="node1" class="node">
<title>139715253697168</title>
<polygon fill="none" stroke="black" points="956.5,-159 291.5,-159 291.5,-105 956.5,-105 956.5,-159"/>
<text text-anchor="middle" x="624" y="-143.8" font-family="Times,serif" font-size="14.00">@anon:0x7f115c670d00:LOP:rootlayer@,@anon:0x7f115c6aee80:LOP:rootlayer&#45;session.usda@&lt;/asset_cylinder&gt; (0)</text>
<text text-anchor="middle" x="624" y="-112.8" font-family="Times,serif" font-size="14.00">depth: 0</text>
</g>
<!-- 139715253697272 -->
<g id="node2" class="node">
<title>139715253697272</title>
<polygon fill="none" stroke="black" stroke-dasharray="1,5" points="740,-54 0,-54 0,0 740,0 740,-54"/>
<text text-anchor="middle" x="370" y="-38.8" font-family="Times,serif" font-size="14.00">@anon:0x7f115c670d00:LOP:rootlayer@,@anon:0x7f115c6aee80:LOP:rootlayer&#45;session.usda@&lt;/__CLASS__/assets/cylinder&gt; (1)</text>
<text text-anchor="middle" x="370" y="-7.8" font-family="Times,serif" font-size="14.00">depth: 1</text>
</g>
<!-- 139715253697168&#45;&gt;139715253697272 -->
<g id="edge1" class="edge">
<title>139715253697168&#45;&gt;139715253697272</title>
<path fill="none" stroke="green" d="M558.92,-104.61C524.27,-90.56 481.48,-73.21 445.39,-58.57"/>
<polygon fill="green" stroke="green" points="446.9,-55.41 436.31,-54.89 444.27,-61.89 446.9,-55.41"/>
<text text-anchor="middle" x="531" y="-75.8" font-family="Times,serif" font-size="14.00">inherit</text>
</g>
<!-- 139715253697376 -->
<g id="node3" class="node">
<title>139715253697376</title>
<polygon fill="none" stroke="black" points="998,-54 758,-54 758,0 998,0 998,-54"/>
<text text-anchor="middle" x="878" y="-38.8" font-family="Times,serif" font-size="14.00">@asset_cylinder.usdnc@&lt;/root_grp&gt; (2)</text>
<text text-anchor="middle" x="878" y="-7.8" font-family="Times,serif" font-size="14.00">depth: 1</text>
</g>
<!-- 139715253697168&#45;&gt;139715253697376 -->
<g id="edge2" class="edge">
<title>139715253697168&#45;&gt;139715253697376</title>
<path fill="none" stroke="red" d="M689.08,-104.61C723.73,-90.56 766.52,-73.21 802.61,-58.57"/>
<polygon fill="red" stroke="red" points="803.73,-61.89 811.69,-54.89 801.1,-55.41 803.73,-61.89"/>
<text text-anchor="middle" x="792.5" y="-75.8" font-family="Times,serif" font-size="14.00">reference</text>
</g>
</g>
</svg>
