<svg version="1.1" xmlns="http://www.w3.org/2000/svg" viewBox="0 0 2170.804632575677 1149.0577752044999" width="2170.804632575677" height="1149.0577752044999" filter="invert(93%) hue-rotate(180deg)">
  <!-- svg-source:excalidraw -->
  
  <defs>
    <style class="style-fonts">
      @font-face {
        font-family: "Virgil";
        src: url("https://excalidraw.com/Virgil.woff2");
      }
      @font-face {
        font-family: "Cascadia";
        src: url("https://excalidraw.com/Cascadia.woff2");
      }
    </style>
    
  </defs>
  <rect x="0" y="0" width="2170.804632575677" height="1149.0577752044999" fill="#ffffff"></rect><g stroke-linecap="round" transform="translate(1044.4670529764767 46.44223503866414) rotate(0 205.03028016718935 31.72806163720672)"><path d="M15.86 0 M15.86 0 C134.23 -2.47, 246.64 -2.07, 394.2 0 M15.86 0 C95.81 1.59, 173.25 -0.07, 394.2 0 M394.2 0 C402.55 -0.09, 409.1 7.85, 410.06 15.86 M394.2 0 C404.74 3.86, 405.7 9.08, 410.06 15.86 M410.06 15.86 C408.85 21.01, 409.52 27.22, 410.06 47.59 M410.06 15.86 C411.78 24.51, 411.61 31.43, 410.06 47.59 M410.06 47.59 C410.45 58.84, 403.84 64.16, 394.2 63.46 M410.06 47.59 C406.47 58.59, 400.39 62.45, 394.2 63.46 M394.2 63.46 C310.31 66, 228.07 65.69, 15.86 63.46 M394.2 63.46 C267.05 62.95, 140.06 64.61, 15.86 63.46 M15.86 63.46 C3.38 61.35, -2.35 59.9, 0 47.59 M15.86 63.46 C0.93 60.43, -2.58 60.26, 0 47.59 M0 47.59 C-2.72 38.37, 3.24 28.92, 0 15.86 M0 47.59 C-1.05 36.85, 1.53 23.8, 0 15.86 M0 15.86 C-2.06 5.2, 5.75 -0.94, 15.86 0 M0 15.86 C-2.4 8.94, 8.44 -2.32, 15.86 0" stroke="#e8590c" stroke-width="1" fill="none"></path></g><g transform="translate(1062.8156342031552 65.01568678096908) rotate(0 188.31979370117188 12.5)"><text x="0" y="0" font-family="Virgil, Segoe UI Emoji" font-size="20px" fill="#e8590c" text-anchor="start" style="white-space: pre;" direction="ltr" dominant-baseline="text-before-edge">Direct Opinion on Root Layer/Sublayer</text></g><g stroke-linecap="round" transform="translate(1099.7239872140926 213.41664221578225) rotate(0 146.7593285562195 32.23040018157809)"><path d="M16.12 0 M16.12 0 C81.39 -2.07, 150.18 -1.08, 277.4 0 M16.12 0 C73.37 3.02, 129.53 5.47, 277.4 0 M277.4 0 C289.49 1.96, 292.08 1.62, 293.52 16.12 M277.4 0 C286.54 3.73, 290.2 1.36, 293.52 16.12 M293.52 16.12 C294.46 27.33, 294.45 39.16, 293.52 48.35 M293.52 16.12 C295.28 26.51, 294.14 36.91, 293.52 48.35 M293.52 48.35 C290.34 56.45, 285.99 67.08, 277.4 64.46 M293.52 48.35 C291.6 55.77, 291.91 64.71, 277.4 64.46 M277.4 64.46 C181.65 62.8, 85.75 60.22, 16.12 64.46 M277.4 64.46 C198.72 60.72, 119.81 59.59, 16.12 64.46 M16.12 64.46 C4.46 62.23, -3.4 62.38, 0 48.35 M16.12 64.46 C4.79 67.14, -3.44 62.8, 0 48.35 M0 48.35 C3.15 37.8, -2.22 31.95, 0 16.12 M0 48.35 C1.7 41.61, 1.27 30.5, 0 16.12 M0 16.12 C-3.25 2.03, 9.07 -2.86, 16.12 0 M0 16.12 C-1.31 7.19, 3.74 2.78, 16.12 0" stroke="#e8590c" stroke-width="1" fill="none"></path></g><g transform="translate(1202.6055973020175 233.16286318708245) rotate(0 38.09996032714844 12.5)"><text x="0" y="0" font-family="Virgil, Segoe UI Emoji" font-size="20px" fill="#e8590c" text-anchor="start" style="white-space: pre;" direction="ltr" dominant-baseline="text-before-edge">Inherits</text></g><g stroke-linecap="round"><g transform="translate(1243.3767137150512 116.35000071901939) rotate(0 -0.6194354375812168 43.944203778164436)"><path d="M0.83 -2.28 C1.15 12.12, 0.62 71.46, 0.91 86.4 M-2.17 2.66 C-2.18 17.57, -2.2 76.86, -1.61 90.17" stroke="#e8590c" stroke-width="1" fill="none"></path></g><g transform="translate(1243.3767137150512 116.35000071901939) rotate(0 -0.6194354375812168 43.944203778164436)"><path d="M-15.61 61.44 C-9.15 71.14, -4.93 77.55, -3.82 92.3 M-13.29 63.82 C-10.63 72.02, -7.61 78.74, -0.18 91.58" stroke="#e8590c" stroke-width="1" fill="none"></path></g><g transform="translate(1243.3767137150512 116.35000071901939) rotate(0 -0.6194354375812168 43.944203778164436)"><path d="M4.9 61.08 C5.95 70.99, 4.75 77.5, -3.82 92.3 M7.23 63.46 C4 71.37, 1.12 78.19, -0.18 91.58" stroke="#e8590c" stroke-width="1" fill="none"></path></g></g><mask></mask><g stroke-linecap="round" transform="translate(1099.7239872140926 384.24875086531966) rotate(0 146.7593285562195 32.23040018157809)"><path d="M16.12 0 M16.12 0 C103.91 -0.3, 193.05 1.99, 277.4 0 M16.12 0 C106.81 0.13, 198.84 0.14, 277.4 0 M277.4 0 C287.33 -1.51, 294.46 2.77, 293.52 16.12 M277.4 0 C286.24 -2.17, 294.64 1.53, 293.52 16.12 M293.52 16.12 C291.3 29.06, 290.85 34.62, 293.52 48.35 M293.52 16.12 C294.33 27.32, 292.75 42.49, 293.52 48.35 M293.52 48.35 C290.49 59.6, 284.24 67.86, 277.4 64.46 M293.52 48.35 C297.78 54.89, 288.16 60.6, 277.4 64.46 M277.4 64.46 C188.88 64.93, 98.11 67.54, 16.12 64.46 M277.4 64.46 C221.76 67.9, 169.84 67.83, 16.12 64.46 M16.12 64.46 C6.4 62.67, -0.1 61.89, 0 48.35 M16.12 64.46 C0.96 66.35, 4.28 54.6, 0 48.35 M0 48.35 C-1.75 36.49, -0.45 26.34, 0 16.12 M0 48.35 C2.49 37.9, 0.07 28.53, 0 16.12 M0 16.12 C-1.14 1.42, 1.44 1.21, 16.12 0 M0 16.12 C-2.36 5.76, 4.51 2.04, 16.12 0" stroke="#e8590c" stroke-width="1" fill="none"></path></g><g transform="translate(1202.6055286514327 405.236105761442) rotate(0 40.74995422363281 12.5)"><text x="0" y="0" font-family="Virgil, Segoe UI Emoji" font-size="20px" fill="#e8590c" text-anchor="start" style="white-space: pre;" direction="ltr" dominant-baseline="text-before-edge">Variants</text></g><g stroke-linecap="round" transform="translate(1099.7239872140926 556.3219934396793) rotate(0 146.7593285562195 32.23040018157809)"><path d="M16.12 0 M16.12 0 C109.89 -3.57, 201.95 0.1, 277.4 0 M16.12 0 C67.9 -2.9, 123.2 -2.92, 277.4 0 M277.4 0 C286.56 -0.2, 293.23 6.66, 293.52 16.12 M277.4 0 C287.3 -4.59, 289.38 9.63, 293.52 16.12 M293.52 16.12 C292.2 19.62, 289.4 32.25, 293.52 48.35 M293.52 16.12 C294.46 23.17, 295.54 32.16, 293.52 48.35 M293.52 48.35 C294.68 61.37, 289.8 62.31, 277.4 64.46 M293.52 48.35 C294.96 58.58, 289.77 60.12, 277.4 64.46 M277.4 64.46 C204.48 59.16, 136.23 60.45, 16.12 64.46 M277.4 64.46 C226.08 63.67, 170.56 64.73, 16.12 64.46 M16.12 64.46 C1.5 66.46, -3.77 59.15, 0 48.35 M16.12 64.46 C2.9 65.26, 3.9 60.17, 0 48.35 M0 48.35 C-3.86 35.96, -2.96 22.42, 0 16.12 M0 48.35 C2.06 40.8, 1.27 32.91, 0 16.12 M0 16.12 C-1.17 6.51, 3.36 0.78, 16.12 0 M0 16.12 C2.55 6.9, 7.44 3.64, 16.12 0" stroke="#e8590c" stroke-width="1" fill="none"></path></g><g transform="translate(1193.9177284788484 574.2064791984542) rotate(0 52.93994140625 12.5)"><text x="0" y="0" font-family="Virgil, Segoe UI Emoji" font-size="20px" fill="#e8590c" text-anchor="start" style="white-space: pre;" direction="ltr" dominant-baseline="text-before-edge">References</text></g><g stroke-linecap="round" transform="translate(1099.7239872140926 727.774669051628) rotate(0 146.7593285562195 32.23040018157809)"><path d="M16.12 0 M16.12 0 C80.64 -1.23, 151.96 3.14, 277.4 0 M16.12 0 C68.04 2, 121.55 1.22, 277.4 0 M277.4 0 C285.99 0.69, 296.91 6.31, 293.52 16.12 M277.4 0 C292 -0.77, 291.37 0.81, 293.52 16.12 M293.52 16.12 C290.85 21.91, 289.49 38.3, 293.52 48.35 M293.52 16.12 C293.14 26.95, 292.72 37.04, 293.52 48.35 M293.52 48.35 C295.74 60.42, 289.94 67.62, 277.4 64.46 M293.52 48.35 C297.75 56.25, 289.74 67.52, 277.4 64.46 M277.4 64.46 C220.89 65.91, 158.63 66.89, 16.12 64.46 M277.4 64.46 C201.23 62.79, 127.95 61.63, 16.12 64.46 M16.12 64.46 C9.17 68.13, -3.83 61.75, 0 48.35 M16.12 64.46 C2.25 63.42, 0.73 54.96, 0 48.35 M0 48.35 C-2.34 36.45, -4.12 26.96, 0 16.12 M0 48.35 C0.81 34.96, -1.69 25.25, 0 16.12 M0 16.12 C2.88 6.97, 6.21 1, 16.12 0 M0 16.12 C-4.45 4.97, 6.63 -3.07, 16.12 0" stroke="#e8590c" stroke-width="1" fill="none"></path></g><g transform="translate(1203.8467312268397 747.9749723734701) rotate(0 43.92994689941406 12.5)"><text x="0" y="0" font-family="Virgil, Segoe UI Emoji" font-size="20px" fill="#e8590c" text-anchor="start" style="white-space: pre;" direction="ltr" dominant-baseline="text-before-edge">Payloads</text></g><g stroke-linecap="round" transform="translate(1099.7239872140926 899.2273446635766) rotate(0 146.7593285562195 32.23040018157809)"><path d="M16.12 0 M16.12 0 C101.7 -1.51, 180.45 -4.14, 277.4 0 M16.12 0 C93.5 -0.31, 171.21 2.38, 277.4 0 M277.4 0 C288.89 1.3, 294.32 4.2, 293.52 16.12 M277.4 0 C289.46 -2.32, 294.41 7.92, 293.52 16.12 M293.52 16.12 C297.48 24.38, 295.19 40.25, 293.52 48.35 M293.52 16.12 C294.46 22.57, 291.81 30.34, 293.52 48.35 M293.52 48.35 C293.01 55.71, 285.8 61.76, 277.4 64.46 M293.52 48.35 C295.74 61.2, 287.03 68.82, 277.4 64.46 M277.4 64.46 C172.91 66.51, 73.26 64.37, 16.12 64.46 M277.4 64.46 C193.07 63.08, 108.79 63.4, 16.12 64.46 M16.12 64.46 C8.76 67.77, -1.46 61.77, 0 48.35 M16.12 64.46 C3.1 61.81, 3.92 62.4, 0 48.35 M0 48.35 C-4.01 37.04, 0.96 23.76, 0 16.12 M0 48.35 C0.58 38.4, -1.05 25.91, 0 16.12 M0 16.12 C1.92 8.64, 2.61 -0.1, 16.12 0 M0 16.12 C2.2 2.04, 4.74 1.47, 16.12 0" stroke="#e8590c" stroke-width="1" fill="none"></path></g><g transform="translate(1187.7120588547382 918.9734969842921) rotate(0 51.79993438720703 12.5)"><text x="0" y="0" font-family="Virgil, Segoe UI Emoji" font-size="20px" fill="#e8590c" text-anchor="start" style="white-space: pre;" direction="ltr" dominant-baseline="text-before-edge">Specializes</text></g><g stroke-linecap="round"><g transform="translate(1244.8871488433272 281.96720985101194) rotate(0 -0.6589783748747209 46.08114424175233)"><path d="M-0.09 1.64 C0.08 16.01, 2.19 73.96, 2.27 88.83 M-3.58 0.05 C-3.75 16.06, 0.59 77.78, 0.93 92.11" stroke="#e8590c" stroke-width="1" fill="none"></path></g><g transform="translate(1244.8871488433272 281.96720985101194) rotate(0 -0.6589783748747209 46.08114424175233)"><path d="M-8.39 66.81 C-7.11 73.64, -0.25 86.82, -1.83 92.01 M-10.09 64.5 C-7.32 74.58, -2.31 82.8, -0.51 93.55" stroke="#e8590c" stroke-width="1" fill="none"></path></g><g transform="translate(1244.8871488433272 281.96720985101194) rotate(0 -0.6589783748747209 46.08114424175233)"><path d="M12.11 65.79 C6.33 72.96, 6.12 86.49, -1.83 92.01 M10.41 63.48 C6.03 73.86, 3.91 82.43, -0.51 93.55" stroke="#e8590c" stroke-width="1" fill="none"></path></g></g><mask></mask><g stroke-linecap="round"><g transform="translate(1246.2178834744163 458.63688908628393) rotate(0 0.956575303160264 41.30432248771996)"><path d="M2.25 1.15 C2.23 14.32, 1.97 67.16, 1.93 80.72 M0.03 -0.7 C-0.54 12.63, -0.3 68.93, -0.24 83.3" stroke="#e8590c" stroke-width="1" fill="none"></path></g><g transform="translate(1246.2178834744163 458.63688908628393) rotate(0 0.956575303160264 41.30432248771996)"><path d="M-8.96 55.3 C-9.14 65.84, -2.69 78.62, 2.89 81.41 M-12.44 56.28 C-6.99 64.85, -5.2 74.83, -0.14 84.95" stroke="#e8590c" stroke-width="1" fill="none"></path></g><g transform="translate(1246.2178834744163 458.63688908628393) rotate(0 0.956575303160264 41.30432248771996)"><path d="M11.56 55.24 C3.71 66.13, 2.49 78.93, 2.89 81.41 M8.08 56.21 C6.35 64.62, 0.96 74.62, -0.14 84.95" stroke="#e8590c" stroke-width="1" fill="none"></path></g></g><mask></mask><g stroke-linecap="round"><g transform="translate(1245.961622887142 630.280658239501) rotate(0 0.5175824828398845 43.591153656461984)"><path d="M-2.68 0.88 C-2.68 15.46, -2.14 73.84, -1.92 88.29 M1.06 -1.11 C2.15 12.66, 4.35 70.54, 3.54 84.56" stroke="#e8590c" stroke-width="1" fill="none"></path></g><g transform="translate(1245.961622887142 630.280658239501) rotate(0 0.5175824828398845 43.591153656461984)"><path d="M-5.42 53.87 C-0.81 61.36, 0.58 65.68, -0.23 81.73 M-5.94 54.86 C-4.53 66.18, 1.73 78.39, 2.69 84.17" stroke="#e8590c" stroke-width="1" fill="none"></path></g><g transform="translate(1245.961622887142 630.280658239501) rotate(0 0.5175824828398845 43.591153656461984)"><path d="M15.1 53.89 C14.99 60.99, 11.65 65.3, -0.23 81.73 M14.58 54.89 C7.99 65.97, 6.25 78.17, 2.69 84.17" stroke="#e8590c" stroke-width="1" fill="none"></path></g></g><mask></mask><g stroke-linecap="round"><g transform="translate(1248.7625269898094 800.9556764753136) rotate(0 -0.26165879028354766 42.09013078761103)"><path d="M2.26 -1.88 C2 12.8, -0.96 71.85, -1.75 86.06 M0.05 3.27 C-0.37 17.38, -2.2 68.41, -2.79 82.24" stroke="#e8590c" stroke-width="1" fill="none"></path></g><g transform="translate(1248.7625269898094 800.9556764753136) rotate(0 -0.26165879028354766 42.09013078761103)"><path d="M-14.64 56.83 C-6.55 64.04, -7.68 72.78, -0.46 80.64 M-12.95 53.74 C-10.87 62.61, -7.42 68.46, -4.75 82.92" stroke="#e8590c" stroke-width="1" fill="none"></path></g><g transform="translate(1248.7625269898094 800.9556764753136) rotate(0 -0.26165879028354766 42.09013078761103)"><path d="M5.86 57.62 C7.94 64.93, 0.78 73.44, -0.46 80.64 M7.55 54.53 C4.39 62.85, 2.59 68.5, -4.75 82.92" stroke="#e8590c" stroke-width="1" fill="none"></path></g></g><mask></mask><g stroke-linecap="round" transform="translate(1117.182471935233 1074.5969748413438) rotate(0 146.7593285562195 32.230400181578034)"><path d="M16.12 0 M16.12 0 C102.04 0.73, 192.57 0.09, 277.4 0 M16.12 0 C72.64 3.45, 133.29 3.68, 277.4 0 M277.4 0 C289.37 -1.05, 294.05 4.19, 293.52 16.12 M277.4 0 C286.28 -2.37, 291.56 9.01, 293.52 16.12 M293.52 16.12 C295.72 20.59, 294.72 28.63, 293.52 48.35 M293.52 16.12 C295.27 24.7, 293.14 36.32, 293.52 48.35 M293.52 48.35 C295.59 59.64, 285.08 63.78, 277.4 64.46 M293.52 48.35 C295.64 58.18, 290.92 65.39, 277.4 64.46 M277.4 64.46 C203.87 62.47, 131.82 59, 16.12 64.46 M277.4 64.46 C194.17 66.78, 113.81 65.58, 16.12 64.46 M16.12 64.46 C1.48 65.41, -1.53 60.63, 0 48.35 M16.12 64.46 C1.82 62.79, -2.01 55.82, 0 48.35 M0 48.35 C-3.04 33.3, 2.35 27.12, 0 16.12 M0 48.35 C-0.43 37.35, -1.41 25.49, 0 16.12 M0 16.12 C1.36 5.7, 8.21 -0.67, 16.12 0 M0 16.12 C3.84 8.88, 7.68 -4.39, 16.12 0" stroke="#6741d9" stroke-width="1" fill="none"></path></g><g transform="translate(1130.0161074127404 1094.9859476917004) rotate(0 135.7998504638672 12.5)"><text x="0" y="0" font-family="Virgil, Segoe UI Emoji" font-size="20px" fill="#6741d9" text-anchor="start" style="white-space: pre;" direction="ltr" dominant-baseline="text-before-edge">Default Value From Schema</text></g><g stroke-linecap="round"><g transform="translate(1096.2834315272812 591.1523272340253) rotate(0 -96.7645314834416 0.33360326160050136)"><path d="M-2.56 0.92 C-18.7 1.27, -65.3 2.64, -97.09 2.66 C-128.89 2.68, -177.44 1.19, -193.3 1.07 M1.25 -1.05 C-14.02 -1.66, -59.36 -2.71, -92.03 -2.05 C-124.7 -1.38, -178.32 1.96, -194.78 2.93" stroke="#1971c2" stroke-width="1" fill="none"></path></g></g><mask></mask><g stroke-linecap="round"><g transform="translate(1091.1733002278224 416.7936094726097) rotate(0 -93.69594652082475 -1.8909922834280621)"><path d="M1.69 1.29 C-17.63 0.04, -84.77 -4.51, -116.14 -4.9 C-147.51 -5.29, -174.91 -1.61, -186.55 -1.04 M-0.83 -0.48 C-20.5 -0.02, -86.91 -0.41, -118.28 -1.17 C-149.66 -1.94, -177.84 -4.23, -189.09 -5.07" stroke="#1971c2" stroke-width="1" fill="none"></path></g></g><mask></mask><g stroke-linecap="round"><g transform="translate(1095.5149935672289 253.44069629300867) rotate(0 -93.954669384542 -3.0717912978606137)"><path d="M-1.76 -0.78 C-21.18 -1.37, -82.96 -4.02, -114.29 -4.78 C-145.61 -5.55, -176.67 -5.03, -189.71 -5.36 M2.49 -3.67 C-17.47 -3.88, -84.11 -2.61, -116.26 -2.43 C-148.41 -2.25, -177.7 -2.11, -190.4 -2.59" stroke="#1971c2" stroke-width="1" fill="none"></path></g></g><mask></mask><g stroke-linecap="round"><g transform="translate(1604.6088106701918 588.7528166414736) rotate(0 -101.37269674930326 -1.7223273758773416)"><path d="M-1.68 -2.76 C-22.21 -3.38, -90.75 -5.29, -124.69 -5.36 C-158.64 -5.42, -192.18 -3.45, -205.34 -3.16 M2.6 1.91 C-18.07 1.9, -92.65 -1.61, -126.36 -1.88 C-160.07 -2.14, -186.83 0.15, -199.66 0.3" stroke="#6741d9" stroke-width="1" fill="none"></path></g></g><mask></mask><g stroke-linecap="round"><g transform="translate(1609.561751739025 423.54838675867353) rotate(0 -109.0679747383279 -4.692781251746396)"><path d="M1.05 -0.28 C-23.19 -0.55, -110.78 -3.87, -147.15 -4.43 C-183.51 -4.99, -205.3 -3.92, -217.14 -3.64 M-1.83 -2.89 C-25.04 -3.82, -105.67 -9.5, -141.9 -9.09 C-178.12 -8.68, -206.43 -2.03, -219.19 -0.44" stroke="#6741d9" stroke-width="1" fill="none"></path></g></g><mask></mask><g stroke-linecap="round"><g transform="translate(1609.826196254974 252.41806061024516) rotate(0 -107.60532472395346 -3.3727710330396974)"><path d="M-2.12 0.65 C-25.68 -0.12, -104.94 -4.39, -140.34 -4.91 C-175.74 -5.42, -202.55 -2.27, -214.51 -2.44 M1.92 -1.47 C-22.15 -1.72, -106.31 -0.2, -142.82 -1.19 C-179.33 -2.17, -205.77 -6.83, -217.14 -7.4" stroke="#6741d9" stroke-width="1" fill="none"></path></g></g><mask></mask><g transform="translate(1060.5077994689295 138.88789525068267) rotate(0 82.80990600585938 12.5)"><text x="0" y="0" font-family="Virgil, Segoe UI Emoji" font-size="20px" fill="#e8590c" text-anchor="start" style="white-space: pre;" direction="ltr" dominant-baseline="text-before-edge">No opinion found?</text></g><g stroke-linecap="round" transform="translate(515.7652352844476 294.6705855484982) rotate(0 189.12125132120048 40.52811482184978)"><path d="M20.26 0 M20.26 0 C107.42 0.24, 198.82 0.71, 357.98 0 M20.26 0 C107.82 -3.49, 197.5 -2.75, 357.98 0 M357.98 0 C370.27 -0.34, 374.91 3.95, 378.24 20.26 M357.98 0 C369.95 -2.48, 382.05 6.41, 378.24 20.26 M378.24 20.26 C378.31 36.93, 375.66 47.05, 378.24 60.79 M378.24 20.26 C378.92 34.63, 378.39 48.67, 378.24 60.79 M378.24 60.79 C376.81 77.27, 372.04 83.39, 357.98 81.06 M378.24 60.79 C378.04 76.34, 375.52 79.45, 357.98 81.06 M357.98 81.06 C243.72 83.4, 132.68 82.68, 20.26 81.06 M357.98 81.06 C253.86 80.67, 149.27 80.85, 20.26 81.06 M20.26 81.06 C8.72 83.21, 3.88 72.95, 0 60.79 M20.26 81.06 C4.79 78.84, 0.02 74.14, 0 60.79 M0 60.79 C3.55 50.93, 0.8 36.05, 0 20.26 M0 60.79 C1.84 50.67, -0.25 39.32, 0 20.26 M0 20.26 C2.27 7.63, 8.89 0.92, 20.26 0 M0 20.26 C2.41 7.09, 11.14 -0.68, 20.26 0" stroke="#1971c2" stroke-width="1" fill="none"></path></g><g transform="translate(535.9475768663985 311.4055803082146) rotate(0 172.13980102539062 25)"><text x="0" y="0" font-family="Virgil, Segoe UI Emoji" font-size="20px" fill="#1971c2" text-anchor="start" style="white-space: pre;" direction="ltr" dominant-baseline="text-before-edge">Recursively apply LIVRP evaluation</text><text x="0" y="25" font-family="Virgil, Segoe UI Emoji" font-size="20px" fill="#1971c2" text-anchor="start" style="white-space: pre;" direction="ltr" dominant-baseline="text-before-edge">   (Specialize arcs are ingored)</text></g><g stroke-linecap="round"><g transform="translate(1097.47700076692 934.9934242911161) rotate(0 -357.0017405211905 -430.16537767660094)"><path d="M-0.53 -0.92 C-74.16 -1.42, -337.51 -0.82, -444.3 -4.63 C-551.08 -8.45, -597.27 7.7, -641.25 -23.79 C-685.22 -55.27, -696.88 -55.12, -708.15 -193.54 C-719.42 -331.96, -709.39 -744.12, -708.85 -854.31 M-4.26 -3.89 C-76.81 -3.76, -332.93 3.06, -439.16 -1 C-545.39 -5.05, -596.82 4.7, -641.65 -28.21 C-686.48 -61.13, -697.7 -59.74, -708.15 -198.47 C-718.6 -337.21, -704.24 -751.04, -704.33 -860.62" stroke="#1971c2" stroke-width="1" fill="none"></path></g></g><mask></mask><g stroke-linecap="round" transform="translate(10 78.66919722369255) rotate(0 189.12125132120048 40.52811482184977)"><path d="M20.26 0 M20.26 0 C151.02 -2.01, 287.16 0.11, 357.98 0 M20.26 0 C152.34 -3.72, 282.64 -3.63, 357.98 0 M357.98 0 C371.69 -2.22, 376.18 4.26, 378.24 20.26 M357.98 0 C375.59 -4.57, 375.15 9.66, 378.24 20.26 M378.24 20.26 C378.27 37.97, 378.01 54.5, 378.24 60.79 M378.24 20.26 C378.68 32.7, 378.23 45.88, 378.24 60.79 M378.24 60.79 C377.9 73.03, 371.14 78.68, 357.98 81.06 M378.24 60.79 C378.94 75.02, 374.74 77.19, 357.98 81.06 M357.98 81.06 C258.09 79.9, 159.71 78.95, 20.26 81.06 M357.98 81.06 C261.99 84.44, 166.28 82.85, 20.26 81.06 M20.26 81.06 C8.72 81.55, -0.66 71.59, 0 60.79 M20.26 81.06 C5.93 84.42, -3.12 70.74, 0 60.79 M0 60.79 C2.58 50.26, -2.57 35.89, 0 20.26 M0 60.79 C-0.04 47.53, 2.02 31.55, 0 20.26 M0 20.26 C-1.81 5.94, 4.52 -3.73, 20.26 0 M0 20.26 C-4.14 9, 11.28 1.4, 20.26 0" stroke="#1971c2" stroke-width="1" fill="none"></path></g><g transform="translate(27.297656598884487 109.82753711874841) rotate(0 173.98753356933594 21.87464621792917)"><text x="0" y="0" font-family="Virgil, Segoe UI Emoji" font-size="17.499716974343333px" fill="#1971c2" text-anchor="start" style="white-space: pre;" direction="ltr" dominant-baseline="text-before-edge">Recursively apply full LIVRPS evaluation</text><text x="0" y="21.874646217929165" font-family="Virgil, Segoe UI Emoji" font-size="17.499716974343333px" fill="#1971c2" text-anchor="start" style="white-space: pre;" direction="ltr" dominant-baseline="text-before-edge">  </text></g><g stroke-linecap="round"><g transform="translate(1607.312706308449 761.0519372195904) rotate(0 -105.57749999852001 -1.2560974874174349)"><path d="M-2.28 0.34 C-19.24 0.31, -67.44 1.17, -102.53 0.57 C-137.62 -0.04, -195.09 -2.38, -212.83 -3.3 M1.67 -1.94 C-15.5 -2.79, -69.49 -3.44, -104.32 -3.2 C-139.14 -2.96, -190.05 -0.46, -207.26 -0.51" stroke="#6741d9" stroke-width="1" fill="none"></path></g></g><mask></mask><g stroke-linecap="round" transform="translate(1459.4142953774526 10) rotate(0 146.75932855621943 32.23040018157808)"><path d="M16.12 0 M16.12 0 C114.46 -6.71, 209.72 -1.84, 277.4 0 M16.12 0 C93.49 1.68, 168.09 0.97, 277.4 0 M277.4 0 C287.21 0.56, 290.19 5.24, 293.52 16.12 M277.4 0 C288.8 1.05, 289.25 9.52, 293.52 16.12 M293.52 16.12 C294.29 25.03, 297 39.74, 293.52 48.35 M293.52 16.12 C294.39 21.59, 294.1 28.77, 293.52 48.35 M293.52 48.35 C290.16 60.75, 289.87 67.9, 277.4 64.46 M293.52 48.35 C297 60.14, 290.4 65.99, 277.4 64.46 M277.4 64.46 C223.21 60.87, 162.31 65.09, 16.12 64.46 M277.4 64.46 C196.78 61.99, 113.23 62.34, 16.12 64.46 M16.12 64.46 C6.66 66, 2.3 56.63, 0 48.35 M16.12 64.46 C3.37 68.48, -3.11 60.34, 0 48.35 M0 48.35 C-0.66 38.27, -2.82 30.15, 0 16.12 M0 48.35 C0.5 38.37, 1.9 27.32, 0 16.12 M0 16.12 C-0.47 5.86, 5.07 1.41, 16.12 0 M0 16.12 C2.22 6.72, 5.34 -1.08, 16.12 0" stroke="#6741d9" stroke-width="1" fill="none"></path></g><g transform="translate(1533.7499624956408 32.84902145806279) rotate(0 65.84992980957031 12.5)"><text x="0" y="0" font-family="Virgil, Segoe UI Emoji" font-size="20px" fill="#6741d9" text-anchor="start" style="white-space: pre;" direction="ltr" dominant-baseline="text-before-edge">Opinion found!</text></g><g stroke-linecap="round"><g transform="translate(1463.904523095871 81.0204222639656) rotate(0 261.69134550569424 -4.9261691766665905)"><path d="M-0.6 -0.14 C85.86 -0.81, 432.05 -4.62, 518.58 -5.91 M4.27 -2.68 C91.65 -3.94, 437.29 -9.4, 523.98 -9.72" stroke="#6741d9" stroke-width="1" fill="none"></path></g><g transform="translate(1463.904523095871 81.0204222639656) rotate(0 261.69134550569424 -4.9261691766665905)"><path d="M495.71 -1.78 C507.43 -4.75, 512.9 -8.08, 527.04 -6.1 M494.15 2.09 C504.23 -2.58, 513.17 -4.91, 525.08 -8.44" stroke="#6741d9" stroke-width="1" fill="none"></path></g><g transform="translate(1463.904523095871 81.0204222639656) rotate(0 261.69134550569424 -4.9261691766665905)"><path d="M495.49 -22.3 C507 -19.26, 512.53 -16.58, 527.04 -6.1 M493.93 -18.43 C504.35 -16.32, 513.36 -11.86, 525.08 -8.44" stroke="#6741d9" stroke-width="1" fill="none"></path></g></g><mask></mask><g stroke-linecap="round" transform="translate(1997.0845234237358 44.174354934610676) rotate(0 81.86005457597048 32.23040018157808)"><path d="M16.12 0 M16.12 0 C46.71 4.15, 71.89 4.95, 147.6 0 M16.12 0 C52.27 -1.61, 89.16 0.07, 147.6 0 M147.6 0 C158.97 2.61, 163.38 5.26, 163.72 16.12 M147.6 0 C162.94 -0.5, 165.76 7.72, 163.72 16.12 M163.72 16.12 C161.17 24.69, 164.56 36.94, 163.72 48.35 M163.72 16.12 C165.05 24.66, 165.84 36.07, 163.72 48.35 M163.72 48.35 C162.39 56.33, 156.05 65, 147.6 64.46 M163.72 48.35 C167.35 62.94, 154.13 64.65, 147.6 64.46 M147.6 64.46 C109.19 67.16, 74.88 68.88, 16.12 64.46 M147.6 64.46 C102.59 65.61, 59.37 64.86, 16.12 64.46 M16.12 64.46 C5.61 65.85, 3.78 55.59, 0 48.35 M16.12 64.46 C2.42 63.08, 2.83 63.65, 0 48.35 M0 48.35 C-3.08 39.29, 2.47 25.2, 0 16.12 M0 48.35 C-0.11 34.3, -1.3 23.09, 0 16.12 M0 16.12 C-3.11 3.06, 4.84 2.12, 16.12 0 M0 16.12 C-2.29 8.01, 6.08 -2.03, 16.12 0" stroke="#6741d9" stroke-width="1" fill="none"></path></g><g transform="translate(2030.2426825919465 66.12820887078561) rotate(0 52.769935607910156 12.5)"><text x="0" y="0" font-family="Virgil, Segoe UI Emoji" font-size="20px" fill="#6741d9" text-anchor="start" style="white-space: pre;" direction="ltr" dominant-baseline="text-before-edge">Use opinion</text></g><g stroke-linecap="round"><g transform="translate(1093.5667213647444 762.6476737240084) rotate(0 -96.33317555344263 -343.40769855857667)"><path d="M-2.71 0.62 C-29.31 -3.29, -131.06 8, -162.38 -21.33 C-193.7 -50.67, -186.34 -64.37, -190.61 -175.38 C-194.88 -286.4, -188.11 -602.2, -188.01 -687.44 M1.02 -1.51 C-24.44 -5.1, -124.78 10.94, -157.02 -17.49 C-189.26 -45.92, -187.52 -60.61, -192.43 -172.08 C-197.33 -283.56, -186.25 -600.51, -186.45 -686.33" stroke="#1971c2" stroke-width="1" fill="none"></path></g><g transform="translate(1093.5667213647444 762.6476737240084) rotate(0 -96.33317555344263 -343.40769855857667)"><path d="M-175.77 -660.71 C-178.5 -663.89, -180.52 -666.98, -190.4 -686.63 M-176.36 -658.29 C-177.61 -663.4, -182.29 -670.84, -184.8 -685.61" stroke="#1971c2" stroke-width="1" fill="none"></path></g><g transform="translate(1093.5667213647444 762.6476737240084) rotate(0 -96.33317555344263 -343.40769855857667)"><path d="M-196.29 -661.06 C-194.9 -663.77, -192.8 -666.79, -190.4 -686.63 M-196.88 -658.63 C-193.53 -663.36, -193.61 -670.72, -184.8 -685.61" stroke="#1971c2" stroke-width="1" fill="none"></path></g></g><mask></mask><g stroke-linecap="round"><g transform="translate(409.23623172353194 74.17030428175747) rotate(0 312.9890294079826 0.32814416876468044)"><path d="M-1.61 -0.99 C102.5 -1.02, 517.73 0.91, 622.19 0.81 M2.72 -4 C107.95 -3.6, 524.04 3.92, 627.58 4.66" stroke="#1971c2" stroke-width="1" fill="none"></path></g><g transform="translate(409.23623172353194 74.17030428175747) rotate(0 312.9890294079826 0.32814416876468044)"><path d="M597.84 11.89 C605.79 14.39, 608.37 13.85, 628.41 3.31 M600.51 15.81 C604.75 13.93, 613.82 7.81, 627.4 5.51" stroke="#1971c2" stroke-width="1" fill="none"></path></g><g transform="translate(409.23623172353194 74.17030428175747) rotate(0 312.9890294079826 0.32814416876468044)"><path d="M598.11 -8.63 C606.15 -1.78, 608.67 2.05, 628.41 3.31 M600.78 -4.71 C604.76 -1.74, 613.77 -3, 627.4 5.51" stroke="#1971c2" stroke-width="1" fill="none"></path></g></g><mask></mask><g stroke-linecap="round"><g transform="translate(1242.6389956271132 972.037441653827) rotate(0 1.682058484623326 46.658716096966714)"><path d="M-1.46 0.56 C-0.64 16.47, 3.58 79.2, 4.82 94.93 M2.94 -1.61 C3.43 13.63, 2.41 75.96, 2.75 91.37" stroke="#6741d9" stroke-width="1" fill="none"></path></g><g transform="translate(1242.6389956271132 972.037441653827) rotate(0 1.682058484623326 46.658716096966714)"><path d="M-6.74 63.6 C-0.77 73.73, 2.26 79.6, 6.29 92.45 M-6.18 64.71 C-2.08 75.69, 0.01 86.03, 2.29 90.45" stroke="#6741d9" stroke-width="1" fill="none"></path></g><g transform="translate(1242.6389956271132 972.037441653827) rotate(0 1.682058484623326 46.658716096966714)"><path d="M13.78 63.59 C13.67 73.51, 10.62 79.38, 6.29 92.45 M14.34 64.7 C10.43 75.77, 4.52 86.11, 2.29 90.45" stroke="#6741d9" stroke-width="1" fill="none"></path></g></g><mask></mask><g stroke-linecap="round"><g transform="translate(1401.74427005987 930.2112745247671) rotate(0 104.47410796433496 -423.89411270326536)"><path d="M-0.18 1.64 C30.33 -4.34, 148.73 18.45, 182.7 -37.79 C216.67 -94.03, 198.64 -201.42, 203.63 -335.8 C208.63 -470.18, 211.63 -759.19, 212.67 -844.06 M-3.72 0.06 C26.46 -6.48, 145.03 15.33, 180.55 -41.42 C216.07 -98.17, 205.15 -205.76, 209.38 -340.43 C213.61 -475.1, 206.46 -765.51, 205.94 -849.43" stroke="#6741d9" stroke-width="1" fill="none"></path></g><g transform="translate(1401.74427005987 930.2112745247671) rotate(0 104.47410796433496 -423.89411270326536)"><path d="M218.95 -821.16 C217.55 -832.3, 213.23 -834.01, 207.68 -849.91 M215.27 -821.28 C212.17 -831.25, 210.44 -840.17, 206.46 -850.85" stroke="#6741d9" stroke-width="1" fill="none"></path></g><g transform="translate(1401.74427005987 930.2112745247671) rotate(0 104.47410796433496 -423.89411270326536)"><path d="M198.43 -820.86 C202.92 -832.06, 204.49 -833.86, 207.68 -849.91 M194.75 -820.98 C197.99 -831.24, 202.62 -840.25, 206.46 -850.85" stroke="#6741d9" stroke-width="1" fill="none"></path></g></g><mask></mask></svg>