<?xml version="1.0" encoding="UTF-8" standalone="no"?>
<!DOCTYPE svg PUBLIC "-//W3C//DTD SVG 1.1//EN"
 "http://www.w3.org/Graphics/SVG/1.1/DTD/svg11.dtd">
<!-- Generated by graphviz version 7.1.0 (0)
 -->
<!-- Title: PcpPrimIndex Pages: 1 -->
<svg width="1338pt" height="302pt"
 viewBox="0.00 0.00 1338.00 302.00" xmlns="http://www.w3.org/2000/svg" xmlns:xlink="http://www.w3.org/1999/xlink">
<g id="graph0" class="graph" transform="scale(1 1) rotate(0) translate(4 298)">
<title>PcpPrimIndex</title>
<polygon fill="white" stroke="none" points="-4,4 -4,-298 1334,-298 1334,4 -4,4"/>
<!-- 139643387802288 -->
<g id="node1" class="node">
<title>139643387802288</title>
<polygon fill="none" stroke="black" points="965.5,-294 321.5,-294 321.5,-240 965.5,-240 965.5,-294"/>
<text text-anchor="middle" x="643.5" y="-278.8" font-family="Times,serif" font-size="14.00">@anon:0x7f00a7eb7f00:LOP:rootlayer@,@anon:0x7f00a7eb6b00:LOP:rootlayer&#45;session.usda@&lt;/asset_cone&gt; (0)</text>
<text text-anchor="middle" x="643.5" y="-247.8" font-family="Times,serif" font-size="14.00">depth: 0</text>
</g>
<!-- 139643387802392 -->
<g id="node2" class="node">
<title>139643387802392</title>
<polygon fill="none" stroke="black" points="265.5,-189 43.5,-189 43.5,-135 265.5,-135 265.5,-189"/>
<text text-anchor="middle" x="154.5" y="-173.8" font-family="Times,serif" font-size="14.00">@asset_cone.usdnc@&lt;/root_grp&gt; (1)</text>
<text text-anchor="middle" x="154.5" y="-142.8" font-family="Times,serif" font-size="14.00">depth: 1</text>
</g>
<!-- 139643387802288&#45;&gt;139643387802392 -->
<g id="edge1" class="edge">
<title>139643387802288&#45;&gt;139643387802392</title>
<path fill="none" stroke="red" d="M515.37,-239.51C447.35,-225.39 362.03,-207.58 277.12,-189.55"/>
<polygon fill="red" stroke="red" points="277.95,-186.15 267.44,-187.49 276.49,-193 277.95,-186.15"/>
<text text-anchor="middle" x="452" y="-210.8" font-family="Times,serif" font-size="14.00">reference</text>
</g>
<!-- 139643387802600 -->
<g id="node4" class="node">
<title>139643387802600</title>
<polygon fill="none" stroke="black" points="1003,-189 284,-189 284,-135 1003,-135 1003,-189"/>
<text text-anchor="middle" x="643.5" y="-173.8" font-family="Times,serif" font-size="14.00">@anon:0x7f00a7eb7f00:LOP:rootlayer@,@anon:0x7f00a7eb6b00:LOP:rootlayer&#45;session.usda@&lt;/__CLASS__/assets/cone&gt; (3)</text>
<text text-anchor="middle" x="643.5" y="-142.8" font-family="Times,serif" font-size="14.00">depth: 1</text>
</g>
<!-- 139643387802288&#45;&gt;139643387802600 -->
<g id="edge3" class="edge">
<title>139643387802288&#45;&gt;139643387802600</title>
<path fill="none" stroke="sienna" stroke-dasharray="5,2" d="M643.5,-239.74C643.5,-227.88 643.5,-213.64 643.5,-200.66"/>
<polygon fill="sienna" stroke="sienna" points="647,-200.72 643.5,-190.72 640,-200.72 647,-200.72"/>
<text text-anchor="middle" x="670.5" y="-210.8" font-family="Times,serif" font-size="14.00">specialize</text>
</g>
<!-- 139643387802704 -->
<g id="node5" class="node">
<title>139643387802704</title>
<polygon fill="none" stroke="black" points="1330,-189 1021,-189 1021,-135 1330,-135 1330,-189"/>
<text text-anchor="middle" x="1175.5" y="-173.8" font-family="Times,serif" font-size="14.00">@asset_cone.usdnc@&lt;/__CLASS__/assets/cone&gt; (4)</text>
<text text-anchor="middle" x="1175.5" y="-142.8" font-family="Times,serif" font-size="14.00">depth: 1</text>
</g>
<!-- 139643387802288&#45;&gt;139643387802704 -->
<g id="edge5" class="edge">
<title>139643387802288&#45;&gt;139643387802704</title>
<path fill="none" stroke="sienna" stroke-dasharray="5,2" d="M780.16,-239.54C855.86,-224.88 950.04,-206.65 1027.49,-191.66"/>
<polygon fill="sienna" stroke="sienna" points="1028.15,-195.09 1037.3,-189.76 1026.82,-188.22 1028.15,-195.09"/>
<text text-anchor="middle" x="967.5" y="-210.8" font-family="Times,serif" font-size="14.00">specialize</text>
</g>
<!-- 139643387802496 -->
<g id="node3" class="node">
<title>139643387802496</title>
<polygon fill="none" stroke="black" stroke-dasharray="1,5" points="309,-84 0,-84 0,0 309,0 309,-84"/>
<text text-anchor="middle" x="154.5" y="-68.8" font-family="Times,serif" font-size="14.00">@asset_cone.usdnc@&lt;/__CLASS__/assets/cone&gt; (2)</text>
<text text-anchor="middle" x="154.5" y="-37.8" font-family="Times,serif" font-size="14.00">inert</text>
<text text-anchor="middle" x="154.5" y="-22.8" font-family="Times,serif" font-size="14.00">CANNOT contribute specs</text>
<text text-anchor="middle" x="154.5" y="-7.8" font-family="Times,serif" font-size="14.00">depth: 1</text>
</g>
<!-- 139643387802392&#45;&gt;139643387802496 -->
<g id="edge2" class="edge">
<title>139643387802392&#45;&gt;139643387802496</title>
<path fill="none" stroke="sienna" d="M154.5,-134.52C154.5,-122.95 154.5,-108.95 154.5,-95.41"/>
<polygon fill="sienna" stroke="sienna" points="158,-95.73 154.5,-85.73 151,-95.73 158,-95.73"/>
<text text-anchor="middle" x="181.5" y="-105.8" font-family="Times,serif" font-size="14.00">specialize</text>
</g>
<!-- 139643387802600&#45;&gt;139643387802496 -->
<g id="edge4" class="edge">
<title>139643387802600&#45;&gt;139643387802496</title>
<path fill="none" stroke="black" stroke-dasharray="1,5" d="M533.76,-134.52C470.82,-119.33 390.55,-99.96 320.08,-82.95"/>
<polygon fill="black" stroke="black" points="321.32,-79.65 310.78,-80.71 319.68,-86.46 321.32,-79.65"/>
<text text-anchor="middle" x="474" y="-105.8" font-family="Times,serif" font-size="14.00">origin</text>
</g>
<!-- 139643387802704&#45;&gt;139643387802496 -->
<g id="edge6" class="edge">
<title>139643387802704&#45;&gt;139643387802496</title>
<path fill="none" stroke="black" stroke-dasharray="1,5" d="M1020.66,-136.11C1017.92,-135.73 1015.2,-135.36 1012.5,-135 772.56,-103.02 493.7,-74.76 320.64,-58.26"/>
<polygon fill="black" stroke="black" points="321.19,-54.8 310.9,-57.34 320.53,-61.77 321.19,-54.8"/>
<text text-anchor="middle" x="866" y="-105.8" font-family="Times,serif" font-size="14.00">origin</text>
</g>
</g>
</svg>
