<?xml version="1.0" encoding="UTF-8" standalone="no"?>
<!DOCTYPE svg PUBLIC "-//W3C//DTD SVG 1.1//EN"
 "http://www.w3.org/Graphics/SVG/1.1/DTD/svg11.dtd">
<!-- Generated by graphviz version 7.1.0 (0)
 -->
<!-- Title: PcpPrimIndex Pages: 1 -->
<svg width="1133pt" height="377pt"
 viewBox="0.00 0.00 1132.50 377.00" xmlns="http://www.w3.org/2000/svg" xmlns:xlink="http://www.w3.org/1999/xlink">
<g id="graph0" class="graph" transform="scale(1 1) rotate(0) translate(4 373)">
<title>PcpPrimIndex</title>
<polygon fill="white" stroke="none" points="-4,4 -4,-373 1128.5,-373 1128.5,4 -4,4"/>
<!-- 139643455466512 -->
<g id="node1" class="node">
<title>139643455466512</title>
<polygon fill="none" stroke="black" points="948.5,-369 305.5,-369 305.5,-315 948.5,-315 948.5,-369"/>
<text text-anchor="middle" x="627" y="-353.8" font-family="Times,serif" font-size="14.00">@anon:0x7f00a7e99200:LOP:rootlayer@,@anon:0x7f00b184a400:LOP:rootlayer&#45;session.usda@&lt;/set/sphere&gt; (0)</text>
<text text-anchor="middle" x="627" y="-322.8" font-family="Times,serif" font-size="14.00">depth: 0</text>
</g>
<!-- 139643455466616 -->
<g id="node2" class="node">
<title>139643455466616</title>
<polygon fill="none" stroke="black" stroke-dasharray="1,5" points="732,-264 0,-264 0,-210 732,-210 732,-264"/>
<text text-anchor="middle" x="366" y="-248.8" font-family="Times,serif" font-size="14.00">@anon:0x7f00a7e99200:LOP:rootlayer@,@anon:0x7f00b184a400:LOP:rootlayer&#45;session.usda@&lt;/__CLASS__/assets/sphere&gt; (1)</text>
<text text-anchor="middle" x="366" y="-217.8" font-family="Times,serif" font-size="14.00">depth: 2</text>
</g>
<!-- 139643455466512&#45;&gt;139643455466616 -->
<g id="edge1" class="edge">
<title>139643455466512&#45;&gt;139643455466616</title>
<path fill="none" stroke="green" stroke-dasharray="5,2" d="M560.12,-314.61C524.37,-300.5 480.17,-283.06 442.99,-268.38"/>
<polygon fill="green" stroke="green" points="444.7,-265.29 434.11,-264.88 442.13,-271.8 444.7,-265.29"/>
<text text-anchor="middle" x="531" y="-285.8" font-family="Times,serif" font-size="14.00">inherit</text>
</g>
<!-- 139643455466720 -->
<g id="node4" class="node">
<title>139643455466720</title>
<polygon fill="none" stroke="black" points="1028,-264 750,-264 750,-210 1028,-210 1028,-264"/>
<text text-anchor="middle" x="889" y="-248.8" font-family="Times,serif" font-size="14.00">@assembly_sphere.usdnc@&lt;/asset_sphere&gt; (2)</text>
<text text-anchor="middle" x="889" y="-217.8" font-family="Times,serif" font-size="14.00">depth: 2</text>
</g>
<!-- 139643455466512&#45;&gt;139643455466720 -->
<g id="edge3" class="edge">
<title>139643455466512&#45;&gt;139643455466720</title>
<path fill="none" stroke="red" d="M694.13,-314.61C730.02,-300.5 774.39,-283.06 811.71,-268.38"/>
<polygon fill="red" stroke="red" points="812.61,-271.79 820.63,-264.88 810.05,-265.28 812.61,-271.79"/>
<text text-anchor="middle" x="798.5" y="-285.8" font-family="Times,serif" font-size="14.00">reference</text>
</g>
<!-- 139643455466824 -->
<g id="node3" class="node">
<title>139643455466824</title>
<polygon fill="none" stroke="black" points="825.5,-159 472.5,-159 472.5,-105 825.5,-105 825.5,-159"/>
<text text-anchor="middle" x="649" y="-143.8" font-family="Times,serif" font-size="14.00">@assembly_sphere.usdnc@&lt;/__CLASS__/assets/sphere&gt; (3)</text>
<text text-anchor="middle" x="649" y="-112.8" font-family="Times,serif" font-size="14.00">depth: 1</text>
</g>
<!-- 139643455466616&#45;&gt;139643455466824 -->
<g id="edge2" class="edge">
<title>139643455466616&#45;&gt;139643455466824</title>
<path fill="none" stroke="black" stroke-dasharray="1,5" d="M438.51,-209.61C477.45,-195.44 525.61,-177.91 566.04,-163.2"/>
<polygon fill="black" stroke="black" points="567.05,-166.55 575.25,-159.84 564.66,-159.97 567.05,-166.55"/>
<text text-anchor="middle" x="541.5" y="-180.8" font-family="Times,serif" font-size="14.00">origin</text>
</g>
<!-- 139643455467032 -->
<g id="node5" class="node">
<title>139643455467032</title>
<polygon fill="none" stroke="black" points="1124.5,-54 795.5,-54 795.5,0 1124.5,0 1124.5,-54"/>
<text text-anchor="middle" x="960" y="-38.8" font-family="Times,serif" font-size="14.00">@asset_sphere.usdnc@&lt;/__CLASS__/assets/sphere&gt; (5)</text>
<text text-anchor="middle" x="960" y="-7.8" font-family="Times,serif" font-size="14.00">depth: 1</text>
</g>
<!-- 139643455466824&#45;&gt;139643455467032 -->
<g id="edge5" class="edge">
<title>139643455466824&#45;&gt;139643455467032</title>
<path fill="none" stroke="black" stroke-dasharray="1,5" d="M728.69,-104.61C771.67,-90.37 824.87,-72.75 869.42,-58"/>
<polygon fill="black" stroke="black" points="870.42,-61.35 878.81,-54.89 868.22,-54.71 870.42,-61.35"/>
<text text-anchor="middle" x="839.5" y="-75.8" font-family="Times,serif" font-size="14.00">origin</text>
</g>
<!-- 139643455466720&#45;&gt;139643455466824 -->
<g id="edge4" class="edge">
<title>139643455466720&#45;&gt;139643455466824</title>
<path fill="none" stroke="green" stroke-dasharray="5,2" d="M838.92,-209.62C817.88,-198.95 793,-186.85 770,-177 759.14,-172.35 747.62,-167.75 736.16,-163.37"/>
<polygon fill="green" stroke="green" points="737.68,-160.2 727.09,-159.95 735.21,-166.75 737.68,-160.2"/>
<text text-anchor="middle" x="817" y="-180.8" font-family="Times,serif" font-size="14.00">inherit</text>
</g>
<!-- 139643455466928 -->
<g id="node6" class="node">
<title>139643455466928</title>
<polygon fill="none" stroke="black" points="1076,-159 844,-159 844,-105 1076,-105 1076,-159"/>
<text text-anchor="middle" x="960" y="-143.8" font-family="Times,serif" font-size="14.00">@asset_sphere.usdnc@&lt;/root_grp&gt; (4)</text>
<text text-anchor="middle" x="960" y="-112.8" font-family="Times,serif" font-size="14.00">depth: 1</text>
</g>
<!-- 139643455466720&#45;&gt;139643455466928 -->
<g id="edge6" class="edge">
<title>139643455466720&#45;&gt;139643455466928</title>
<path fill="none" stroke="red" d="M907.1,-209.74C915.7,-197.27 926.1,-182.18 935.4,-168.69"/>
<polygon fill="red" stroke="red" points="938.28,-170.68 941.07,-160.46 932.52,-166.7 938.28,-170.68"/>
<text text-anchor="middle" x="953.5" y="-180.8" font-family="Times,serif" font-size="14.00">reference</text>
</g>
<!-- 139643455466928&#45;&gt;139643455467032 -->
<g id="edge7" class="edge">
<title>139643455466928&#45;&gt;139643455467032</title>
<path fill="none" stroke="green" d="M960,-104.74C960,-92.88 960,-78.64 960,-65.66"/>
<polygon fill="green" stroke="green" points="963.5,-65.72 960,-55.72 956.5,-65.72 963.5,-65.72"/>
<text text-anchor="middle" x="978" y="-75.8" font-family="Times,serif" font-size="14.00">inherit</text>
</g>
</g>
</svg>
